<svg width="36" height="36" viewBox="0 0 36 36" fill="none" xmlns="http://www.w3.org/2000/svg">
<path fill-rule="evenodd" clip-rule="evenodd" d="M34.5 6C34.5 3.51472 32.4853 1.5 30 1.5H6C3.51472 1.5 1.5 3.51472 1.5 6V21C1.5 23.4853 3.51472 25.5 6 25.5H7.5C8.32842 25.5 9 24.8284 9 24C9 23.1715 8.32842 22.5 7.5 22.5H6C5.17158 22.5 4.5 21.8284 4.5 21V12H31.5V21C31.5 21.8284 30.8284 22.5 30 22.5H28.5C27.6716 22.5 27 23.1715 27 24C27 24.8284 27.6716 25.5 28.5 25.5H30C32.4853 25.5 34.5 23.4853 34.5 21V6ZM31.5 9V6C31.5 5.17158 30.8284 4.5 30 4.5H6C5.17158 4.5 4.5 5.17156 4.5 6V9H31.5Z" fill="#FFA136"/>
<path d="M16.4971 21.0002C16.4971 20.1717 17.1686 19.5002 17.9971 19.5002C18.8255 19.5002 19.4971 20.1717 19.4971 21.0002L19.4971 29.3898L21.4364 27.4508C22.0222 26.8647 22.9719 26.8647 23.5578 27.4508C24.1435 28.0362 24.1435 28.9862 23.5578 29.5718L19.0585 34.0617C18.4726 34.6466 17.5237 34.646 16.9382 34.0607L12.4396 29.5619C11.8537 28.976 11.8537 28.0263 12.4396 27.4404C13.0253 26.8548 13.9751 26.8548 14.5609 27.4404L16.4971 29.3766L16.4971 21.0002Z" fill="#FFA136"/>
</svg>
