<svg width="36" height="36" viewBox="0 0 36 36" fill="none" xmlns="http://www.w3.org/2000/svg">
<path fill-rule="evenodd" clip-rule="evenodd" d="M34.5 6C34.5 3.51472 32.4853 1.5 30 1.5H6C3.51472 1.5 1.5 3.51472 1.5 6V21C1.5 23.4853 3.51472 25.5 6 25.5H7.5C8.32842 25.5 9 24.8284 9 24C9 23.1715 8.32842 22.5 7.5 22.5H6C5.17158 22.5 4.5 21.8284 4.5 21V12H31.5V21C31.5 21.8284 30.8284 22.5 30 22.5H28.5C27.6716 22.5 27 23.1715 27 24C27 24.8284 27.6716 25.5 28.5 25.5H30C32.4853 25.5 34.5 23.4853 34.5 21V6ZM31.5 9V6C31.5 5.17158 30.8284 4.5 30 4.5H6C5.17158 4.5 4.5 5.17156 4.5 6V9H31.5Z" fill="#A0BA84"/>
<path d="M16.4971 33C16.4971 33.8284 17.1686 34.5 17.9971 34.5C18.8255 34.5 19.4971 33.8284 19.4971 33L19.4971 24.6103L21.4364 26.5494C22.0222 27.1354 22.9719 27.1354 23.5578 26.5494C24.1435 25.9639 24.1435 25.014 23.5578 24.4284L19.0585 19.9384C18.4726 19.3536 17.5237 19.3542 16.9382 19.9395L12.4396 24.4383C11.8537 25.0242 11.8537 25.9738 12.4396 26.5597C13.0253 27.1453 13.9751 27.1453 14.5609 26.5597L16.4971 24.6235L16.4971 33Z" fill="#A0BA84"/>
</svg>
