<svg width="24" height="24" viewBox="0 0 24 24" fill="none" xmlns="http://www.w3.org/2000/svg">
<rect width="24" height="24" rx="12" fill="#161818"/>
<mask id="mask0_685_32" style="mask-type:alpha" maskUnits="userSpaceOnUse" x="0" y="0" width="24" height="24">
<rect width="24" height="24" rx="12" fill="#161818"/>
</mask>
<g mask="url(#mask0_685_32)">
<path fill-rule="evenodd" clip-rule="evenodd" d="M16.5 10.063C16.5 13.258 14.57 16 12 16C9.42797 16 7.49997 13.258 7.49997 10.062C7.49997 6.868 9.15997 5 12 5C14.84 5 16.5 6.867 16.5 10.063ZM4.10197 23.142C4.48697 23.6 6.14497 25 12 25C17.855 25 19.512 23.6 19.898 23.143C19.9338 23.0991 19.9602 23.0483 19.9757 22.9938C19.9912 22.9393 19.9954 22.8822 19.988 22.826C19.9 21.944 19.106 18 12 18C4.89397 18 4.09997 21.944 4.01097 22.826C4.00373 22.8822 4.00807 22.9394 4.02372 22.9939C4.03937 23.0484 4.066 23.0982 4.10197 23.142Z" fill="#5A6262"/>
</g>
</svg>
