<svg width="48" height="48" viewBox="0 0 48 48" fill="none" xmlns="http://www.w3.org/2000/svg">
<path d="M0 14C0 6.26801 6.26801 0 14 0H34C41.732 0 48 6.26801 48 14V34C48 41.732 41.732 48 34 48H14C6.26801 48 0 41.732 0 34V14Z" fill="#A0BA84" fill-opacity="0.1"/>
<path d="M14 20.8822C14.4158 18.5464 15.192 16.8224 16.3285 15.7101C17.465 14.57 18.8926 14 20.6112 14C21.3874 14 22.0665 14.1251 22.6486 14.3754C23.2585 14.6257 23.9515 15.001 24.7276 15.5016C25.4207 15.9187 25.9612 16.2245 26.3493 16.4192C26.7651 16.6138 27.2225 16.7112 27.7214 16.7112C28.4144 16.7112 29.0243 16.4887 29.5509 16.0438C30.1053 15.5711 30.438 14.9176 30.5489 14.0834H34C33.5842 16.4192 32.7942 18.1571 31.6299 19.2972C30.4934 20.4095 29.0658 20.9656 27.3472 20.9656C26.571 20.9656 25.8919 20.8405 25.3098 20.5902C24.7277 20.3399 24.0485 19.9645 23.2723 19.464C22.6625 19.0469 22.1358 18.7411 21.6923 18.5464C21.2488 18.3518 20.7775 18.2544 20.2786 18.2544C19.5579 18.2544 18.9203 18.4908 18.3659 18.9635C17.8392 19.4084 17.5204 20.048 17.4096 20.8822H14Z" fill="#A0BA84"/>
<path d="M14 33.9166C14.4158 31.5808 15.192 29.8568 16.3285 28.7445C17.465 27.6044 18.8926 27.0344 20.6112 27.0344C21.3874 27.0344 22.0665 27.1595 22.6486 27.4098C23.2585 27.6601 23.9515 28.0355 24.7276 28.536C25.4207 28.9531 25.9612 29.259 26.3493 29.4536C26.7651 29.6482 27.2225 29.7456 27.7214 29.7456C28.4144 29.7456 29.0243 29.5231 29.5509 29.0782C30.1053 28.6055 30.438 27.952 30.5489 27.1178H34C33.5842 29.4536 32.7942 31.1915 31.6299 32.3316C30.4934 33.4439 29.0658 34 27.3472 34C26.571 34 25.8919 33.8749 25.3098 33.6246C24.7277 33.3743 24.0485 32.999 23.2723 32.4984C22.6625 32.0813 22.1358 31.7755 21.6923 31.5808C21.2488 31.3862 20.7775 31.2888 20.2786 31.2888C19.5579 31.2888 18.9203 31.5252 18.3659 31.9979C17.8392 32.4428 17.5204 33.0824 17.4096 33.9166H14Z" fill="#A0BA84"/>
<path d="M29.5644 16.5141C30.2578 15.8886 31.3254 15.9465 31.9493 16.6419C32.5733 17.3374 32.3229 18.6711 31.6299 19.2972L18.8313 30.7658C18.1379 31.3919 17.0687 31.3354 16.4446 30.6398C15.8205 29.9442 15.6351 29.3706 16.3285 28.7445L29.5644 16.5141Z" fill="#A0BA84"/>
</svg>
